<svg width="30" height="30" viewBox="0 0 30 30" fill="none" xmlns="http://www.w3.org/2000/svg">
<path d="M5.15625 3.28125C5.52921 3.28125 5.8869 3.42941 6.15062 3.69313C6.41434 3.95685 6.5625 4.31454 6.5625 4.6875V22.9688C6.5625 23.2275 6.7725 23.4375 7.03125 23.4375H25.3125C25.6855 23.4375 26.0431 23.5857 26.3069 23.8494C26.5706 24.1131 26.7188 24.4708 26.7188 24.8438C26.7188 25.2167 26.5706 25.5744 26.3069 25.8381C26.0431 26.1018 25.6855 26.25 25.3125 26.25H7.03125C6.16101 26.25 5.32641 25.9043 4.71106 25.2889C4.0957 24.6736 3.75 23.839 3.75 22.9688V4.6875C3.75 4.31454 3.89816 3.95685 4.16188 3.69313C4.4256 3.42941 4.78329 3.28125 5.15625 3.28125ZM19.6875 10.3125C19.3145 10.3125 18.9569 10.1643 18.6931 9.90062C18.4294 9.6369 18.2812 9.27921 18.2812 8.90625C18.2812 8.53329 18.4294 8.1756 18.6931 7.91188C18.9569 7.64816 19.3145 7.5 19.6875 7.5H24.8438C25.2167 7.5 25.5744 7.64816 25.8381 7.91188C26.1018 8.1756 26.25 8.53329 26.25 8.90625V14.2069C26.25 14.5798 26.1018 14.9375 25.8381 15.2012C25.5744 15.465 25.2167 15.6131 24.8438 15.6131C24.4708 15.6131 24.1131 15.465 23.8494 15.2012C23.5857 14.9375 23.4375 14.5798 23.4375 14.2069V12.3L17.8687 17.8687C17.6051 18.1321 17.2477 18.28 16.875 18.28C16.5023 18.28 16.1449 18.1321 15.8813 17.8687L13.125 15.1125L11.3063 16.9312C11.0397 17.1796 10.6871 17.3149 10.3228 17.3085C9.95846 17.302 9.61086 17.1544 9.35321 16.8968C9.09556 16.6391 8.94797 16.2915 8.94155 15.9272C8.93512 15.5629 9.07035 15.2103 9.31875 14.9437L12.1312 12.1312C12.3949 11.8679 12.7523 11.72 13.125 11.72C13.4977 11.72 13.8551 11.8679 14.1188 12.1312L16.875 14.8875L21.45 10.3125H19.6875Z" fill="white"/>
</svg>
